Coordinates
version=1
nRows=8
nColumns=63
inDegrees=yes

Units are S.I. units (second, meters, Newtons, ...)
If the header above contains a line with 'inDegrees', this indicates whether rotational values are in degrees (yes) or radians (no).

endheader
time	pelvis_tilt	pelvis_list	pelvis_rotation	pelvis_tx	pelvis_ty	pelvis_tz	hip_flexion_r	hip_adduction_r	hip_rotation_r	knee_angle_r	knee_angle_r_beta	ankle_angle_r	subtalar_angle_r	mtp_angle_r	hip_flexion_l	hip_adduction_l	hip_rotation_l	knee_angle_l	knee_angle_l_beta	ankle_angle_l	subtalar_angle_l	mtp_angle_l	L5_S1_Flex_Ext	L5_S1_Lat_Bending	L5_S1_axial_rotation	L4_L5_Flex_Ext	L4_L5_Lat_Bending	L4_L5_axial_rotation	L3_L4_Flex_Ext	L3_L4_Lat_Bending	L3_L4_axial_rotation	L2_L3_Flex_Ext	L2_L3_Lat_Bending	L2_L3_axial_rotation	L1_L2_Flex_Ext	L1_L2_Lat_Bending	L1_L2_axial_rotation	L1_T12_Flex_Ext	L1_T12_Lat_Bending	L1_T12_axial_rotation	Abs_r3	Abs_r2	Abs_r1	Abs_t1	Abs_t2	neck_flexion	neck_bending	neck_rotation	arm_flex_r	arm_add_r	arm_rot_r	elbow_flex_r	pro_sup_r	wrist_flex_r	wrist_dev_r	arm_flex_l	arm_add_l	arm_rot_l	elbow_flex_l	pro_sup_l	wrist_flex_l	wrist_dev_l
3.830508	0.989225	-4.757949	83.251985	0.245222	0.755100	0.705793	4.662140	1.467915	-12.321240	11.299032	0.197205	24.451930	18.367595	0.000000	3.698177	-3.882951	4.012767	8.949899	0.156205	11.272479	-11.674716	0.000000	-0.066226	0.266819	0.045462	-0.122988	0.354869	0.048304	-0.108803	0.648743	0.048304	-0.075690	0.648743	0.039780	-0.061498	0.544097	0.036938	-0.037842	0.413302	0.034097	-0.473046	3.018307	0.252848	0.000000	0.000000	18.566987	-5.859700	-3.063485	-7.838399	-19.665995	23.050254	58.534567	81.825501	7.261642	7.890380	-3.039688	-19.520608	41.992520	31.367117	70.198243	-5.268391	-10.691124
3.847458	0.964221	-4.705963	83.255242	0.245287	0.754956	0.705797	4.742563	1.396797	-12.336448	11.625000	0.202895	24.611617	18.371632	0.000000	3.649920	-3.881771	3.663469	8.916736	0.155626	11.763624	-10.972027	0.000000	-0.062561	0.262342	0.016356	-0.116181	0.348915	0.017378	-0.102781	0.637858	0.017378	-0.071501	0.637858	0.014311	-0.058094	0.534968	0.013289	-0.035747	0.406368	0.012267	-0.446865	2.967666	0.090965	0.000000	0.000000	18.291978	-5.785824	-2.912842	-7.490212	-19.903830	23.693700	58.458035	81.863765	7.257123	7.991037	-2.884563	-19.596823	42.484047	31.229413	69.855993	-5.013569	-10.099173
3.864407	0.954473	-4.667203	83.253973	0.245368	0.754698	0.705806	4.822850	1.355043	-12.267649	11.922568	0.208088	24.788416	18.359211	0.000000	3.626058	-3.916371	3.070656	8.892908	0.155211	12.470612	-9.931053	0.000000	-0.060956	0.260666	-0.014056	-0.113202	0.346685	-0.014934	-0.100145	0.633782	-0.014934	-0.069667	0.633782	-0.012299	-0.056604	0.531549	-0.011420	-0.034830	0.403771	-0.010542	-0.435405	2.948701	-0.078174	0.000000	0.000000	18.117225	-5.725732	-2.720647	-7.223458	-20.115921	24.198195	58.475968	82.054672	7.154389	8.022856	-2.785270	-19.628531	42.734867	31.098744	69.687965	-4.774418	-9.592812
3.881356	0.960540	-4.640066	83.265203	0.245433	0.754354	0.705818	4.890279	1.342607	-12.140834	12.171822	0.212438	24.969299	18.335311	0.000000	3.621572	-3.974530	2.392082	8.873902	0.154879	13.276406	-8.775532	0.000000	-0.061899	0.262148	-0.045242	-0.114952	0.348657	-0.048069	-0.101693	0.637387	-0.048069	-0.070744	0.637387	-0.039586	-0.057479	0.534573	-0.036759	-0.035369	0.406067	-0.033931	-0.442135	2.965472	-0.251621	0.000000	0.000000	18.045636	-5.690186	-2.490802	-7.063872	-20.282613	24.502043	58.588397	82.388741	6.972696	8.004922	-2.679923	-19.663347	43.080317	30.990247	69.339704	-4.645728	-9.191410
3.898305	0.982487	-4.628210	83.289153	0.245467	0.753946	0.705834	4.945665	1.356996	-11.996848	12.368630	0.215873	25.146359	18.316320	0.000000	3.640916	-4.054098	1.640397	8.869329	0.154799	14.126118	-7.545986	0.000000	-0.064635	0.266881	-0.078814	-0.120034	0.354951	-0.083740	-0.106190	0.648894	-0.083740	-0.073872	0.648894	-0.068962	-0.060020	0.544223	-0.064037	-0.036933	0.413398	-0.059111	-0.461684	3.019008	-0.438341	0.000000	0.000000	18.071500	-5.674969	-2.215698	-6.984825	-20.420286	24.667950	58.769668	82.799233	6.703941	7.942479	-2.595241	-19.682290	43.422640	30.901013	68.913232	-4.629865	-8.920265
3.915254	1.015680	-4.629036	83.296561	0.245511	0.753514	0.705859	4.981065	1.396519	-11.806290	12.496379	0.218103	25.294882	18.285387	0.000000	3.671259	-4.149230	0.838324	8.872935	0.154862	14.948212	-6.324516	0.000000	-0.068522	0.273847	-0.110046	-0.127253	0.364216	-0.116924	-0.112576	0.665831	-0.116924	-0.078314	0.665831	-0.096290	-0.063630	0.558429	-0.089413	-0.039154	0.424189	-0.082535	-0.489449	3.097812	-0.612044	0.000000	0.000000	18.168096	-5.678169	-1.912008	-6.965015	-20.518798	24.709866	58.973590	83.271243	6.412313	7.848845	-2.595938	-19.671695	43.441712	30.855969	68.777903	-4.630735	-8.698937
3.932203	1.059909	-4.634337	83.313897	0.245508	0.753108	0.705881	4.981175	1.455898	-11.627387	12.541467	0.218890	25.401590	18.254489	0.000000	3.702105	-4.243399	0.153607	8.874214	0.154884	15.662757	-5.317461	0.000000	-0.072738	0.282905	-0.137821	-0.135081	0.376263	-0.146434	-0.119501	0.687855	-0.146434	-0.083132	0.687855	-0.120593	-0.067544	0.576900	-0.111979	-0.041562	0.438220	-0.103365	-0.519559	3.200276	-0.766517	0.000000	0.000000	18.295349	-5.709158	-1.621530	-7.006801	-20.583534	24.625082	59.177267	83.766896	6.132163	7.756608	-2.564233	-19.669985	43.685800	30.814921	68.391668	-4.717479	-8.665463
3.949153	1.112366	-4.640767	83.335748	0.245473	0.752762	0.705906	4.943606	1.531895	-11.464631	12.498644	0.218142	25.458360	18.225428	0.000000	3.731492	-4.339861	-0.462790	8.877605	0.154943	16.286758	-4.424771	0.000000	-0.076282	0.293020	-0.160777	-0.141664	0.389717	-0.170826	-0.125324	0.712449	-0.170826	-0.087183	0.712449	-0.140680	-0.070836	0.597527	-0.130632	-0.043588	0.453888	-0.120583	-0.544876	3.314703	-0.894195	0.000000	0.000000	18.420459	-5.763393	-1.375262	-7.076740	-20.621313	24.475379	59.341335	84.235141	5.866005	7.666214	-2.506563	-19.671110	44.113384	30.761851	67.844549	-4.880949	-8.843653
